<?xml version="1.0" encoding="UTF-8"?>
<svg xmlns="http://www.w3.org/2000/svg" width="32" height="32" xmlns:xlink="http://www.w3.org/1999/xlink" viewBox="0 0 32 32">
  <defs>
    <style>
      .cls-1 {
        filter: url(#drop-shadow-1);
        stroke-width: .75px;
      }

      .cls-1, .cls-2, .cls-3 {
        stroke: #fff;
        stroke-miterlimit: 10;
      }

      .cls-2 {
        fill: #fff;
        filter: url(#drop-shadow-2);
        stroke-width: 1.5px;
      }

      .cls-3 {
        fill-rule: evenodd;
      }
    </style>
    <filter id="drop-shadow-1" x=".056" y="-.151" width="16" height="23" filterUnits="userSpaceOnUse">
      <feOffset dx="0" dy=".5"/>
      <feGaussianBlur result="blur" stdDeviation=".5"/>
      <feFlood flood-color="#000" flood-opacity=".5"/>
      <feComposite in2="blur" operator="in"/>
      <feComposite in="SourceGraphic"/>
    </filter>
    <filter id="drop-shadow-2" x="10.056" y="12.849" width="19" height="19" filterUnits="userSpaceOnUse">
      <feOffset dx="0" dy=".5"/>
      <feGaussianBlur result="blur-2" stdDeviation=".5"/>
      <feFlood flood-color="#000" flood-opacity=".5"/>
      <feComposite in2="blur-2" operator="in"/>
      <feComposite in="SourceGraphic"/>
    </filter>
  </defs>
  <g id="mous">
    <g>
      <path class="cls-3" d="M3.057,3.335v11.982l2.57-2.55,2.454,5.871,2.117-1.011-2.358-5.582h3.753L3.057,3.335Z"/>
      <path class="cls-1" d="M3.435,2.965l-.907-.926v14.55l.902-.895,2.012-1.997,2.151,5.145.215.513.502-.24,2.117-1.011.456-.218-.197-.466-2.047-4.847h4.215l-.882-.9L3.435,2.965Z"/>
    </g>
  </g>
  <g id="duplicate">
    <path class="cls-2" d="M25.739,15.115h-8.715c-.451,0-.817.366-.817.817v2.451h-2.451c-.451,0-.817.366-.817.817v8.715c0,.451.366.817.817.817h8.715c.451,0,.817-.366.817-.817v-2.451h2.451c.451,0,.817-.366.817-.817v-8.715c0-.451-.366-.817-.817-.817Z"/>
    <path d="M25.739,15.115h-8.715c-.451,0-.817.366-.817.817v2.451h-2.451c-.451,0-.817.366-.817.817v8.715c0,.451.366.817.817.817h8.715c.451,0,.817-.366.817-.817v-2.451h2.451c.451,0,.817-.366.817-.817v-8.715c0-.451-.366-.817-.817-.817ZM21.654,27.099h-7.081v-7.081h7.081v7.081ZM24.922,23.831h-1.634v-4.63c0-.451-.366-.817-.817-.817h-4.63v-1.634h7.081v7.081Z"/>
  </g>
</svg>