<?xml version="1.0" encoding="UTF-8"?>
<svg xmlns="http://www.w3.org/2000/svg" width="32" height="32" xmlns:xlink="http://www.w3.org/1999/xlink" viewBox="0 0 32 32">
  <defs>
    <style>
      .cls-1 {
        filter: url(#drop-shadow-1);
        stroke-width: .75px;
      }

      .cls-1, .cls-2, .cls-3 {
        stroke: #fff;
        stroke-miterlimit: 10;
      }

      .cls-2 {
        fill: #fff;
        filter: url(#drop-shadow-2);
        stroke-width: 1.5px;
      }

      .cls-3 {
        fill-rule: evenodd;
      }
    </style>
    <filter id="drop-shadow-1" x=".056" y="-.151" width="16" height="23" filterUnits="userSpaceOnUse">
      <feOffset dx="0" dy=".5"/>
      <feGaussianBlur result="blur" stdDeviation=".5"/>
      <feFlood flood-color="#000" flood-opacity=".5"/>
      <feComposite in2="blur" operator="in"/>
      <feComposite in="SourceGraphic"/>
    </filter>
    <filter id="drop-shadow-2" x="10.056" y="12.849" width="19" height="19" filterUnits="userSpaceOnUse">
      <feOffset dx="0" dy=".5"/>
      <feGaussianBlur result="blur-2" stdDeviation=".5"/>
      <feFlood flood-color="#000" flood-opacity=".5"/>
      <feComposite in2="blur-2" operator="in"/>
      <feComposite in="SourceGraphic"/>
    </filter>
  </defs>
  <g id="mous">
    <g>
      <path class="cls-3" d="M3.057,3.335v11.982l2.57-2.55,2.454,5.871,2.117-1.011-2.358-5.582h3.753L3.057,3.335Z"/>
      <path class="cls-1" d="M3.435,2.965l-.907-.926v14.55l.902-.895,2.012-1.997,2.151,5.145.215.513.502-.24,2.117-1.011.456-.218-.197-.466-2.047-4.847h4.215l-.882-.9L3.435,2.965Z"/>
    </g>
  </g>
  <g id="gear">
    <path class="cls-2" d="M25.518,22v-.099l.874-1.093c.149-.186.2-.431.139-.661-.158-.595-.393-1.166-.701-1.699-.12-.206-.331-.343-.569-.368l-1.391-.156-.069-.069-.156-1.391c-.025-.237-.162-.448-.368-.568-.533-.309-1.105-.545-1.7-.703-.23-.06-.475-.008-.66.142l-1.093.874h-.099l-1.093-.874c-.186-.149-.431-.2-.661-.139-.595.159-1.166.395-1.699.704-.205.12-.342.329-.368.566l-.156,1.391-.069.069-1.391.156c-.237.025-.448.162-.568.368-.308.533-.543,1.105-.701,1.7-.061.23-.009.475.139.66l.874,1.093v.099l-.874,1.093c-.149.186-.2.431-.139.661.159.595.396,1.166.705,1.699.119.205.329.342.565.368l1.391.155.069.069.156,1.393c.025.237.162.448.368.568.533.309,1.105.545,1.7.703.23.06.475.008.66-.142l1.093-.874h.099l1.093.874c.186.149.431.2.661.139.595-.158,1.166-.393,1.699-.701.206-.119.343-.329.369-.566l.155-1.391.069-.069,1.391-.159c.236-.026.446-.163.566-.369.309-.533.545-1.105.703-1.7.061-.229.009-.474-.139-.659l-.874-1.093Z"/>
    <path d="M19.775,18.705c-1.793,0-3.246,1.453-3.246,3.246s1.453,3.246,3.246,3.246,3.246-1.453,3.246-3.246c-.002-1.792-1.454-3.244-3.246-3.246ZM19.775,23.699c-.965,0-1.748-.783-1.748-1.748s.783-1.748,1.748-1.748,1.748.783,1.748,1.748-.783,1.748-1.748,1.748ZM25.518,22v-.099l.874-1.093c.149-.186.2-.431.139-.661-.158-.595-.393-1.166-.701-1.699-.12-.206-.331-.343-.569-.368l-1.391-.156-.069-.069-.156-1.391c-.025-.237-.162-.448-.368-.568-.533-.309-1.105-.545-1.7-.703-.23-.06-.475-.008-.66.142l-1.093.874h-.099l-1.093-.874c-.186-.149-.431-.2-.661-.139-.595.159-1.166.395-1.699.704-.205.12-.342.329-.368.566l-.156,1.391-.069.069-1.391.156c-.237.025-.448.162-.568.368-.308.533-.543,1.105-.701,1.7-.061.23-.009.475.139.66l.874,1.093v.099l-.874,1.093c-.149.186-.2.431-.139.661.159.595.396,1.166.705,1.699.119.205.329.342.565.368l1.391.155.069.069.156,1.393c.025.237.162.448.368.568.533.309,1.105.545,1.7.703.23.06.475.008.66-.142l1.093-.874h.099l1.093.874c.186.149.431.2.661.139.595-.158,1.166-.393,1.699-.701.206-.119.343-.329.369-.566l.155-1.391.069-.069,1.391-.159c.236-.026.446-.163.566-.369.309-.533.545-1.105.703-1.7.061-.229.009-.474-.139-.659l-.874-1.093ZM24.012,21.695c.01.17.01.341,0,.512-.011.185.047.368.163.513l.801,1.002c-.076.224-.166.443-.27.655l-1.275.142c-.185.021-.355.11-.478.25-.113.128-.234.249-.362.362-.14.123-.229.293-.25.478l-.141,1.275c-.212.105-.431.195-.655.272l-1.002-.802c-.133-.106-.298-.164-.468-.164h-.045c-.17.01-.341.01-.512,0-.185-.011-.368.047-.513.162l-1.002.802c-.224-.076-.443-.166-.655-.27l-.142-1.275c-.021-.185-.11-.355-.25-.478-.128-.113-.249-.234-.362-.362-.123-.14-.293-.229-.478-.25l-1.275-.141c-.105-.212-.195-.431-.272-.655l.801-1.002c.116-.145.174-.328.163-.513-.01-.17-.01-.341,0-.512.011-.185-.047-.368-.163-.513l-.8-1.002c.076-.224.166-.443.27-.655l1.275-.142c.185-.021.355-.11.478-.25.113-.128.234-.249.362-.362.14-.123.229-.293.25-.478l.141-1.275c.212-.105.431-.195.655-.272l1.002.802c.145.115.328.173.513.162.17-.01.341-.01.512,0,.185.011.368-.047.513-.162l1.002-.802c.224.076.443.167.655.272l.142,1.275c.021.185.11.355.25.478.128.113.249.234.362.362.123.14.293.229.478.25l1.275.141c.105.212.195.431.272.655l-.801,1.002c-.116.145-.175.328-.164.513Z"/>
  </g>
</svg>