<?xml version="1.0" encoding="UTF-8"?>
<svg xmlns="http://www.w3.org/2000/svg" width="32" height="32" xmlns:xlink="http://www.w3.org/1999/xlink" viewBox="0 0 32 32">
  <defs>
    <style>
      .cls-1 {
        filter: url(#drop-shadow-1);
        stroke-width: .75px;
      }

      .cls-1, .cls-2, .cls-3 {
        stroke: #fff;
        stroke-miterlimit: 10;
      }

      .cls-2 {
        fill: #fff;
        filter: url(#drop-shadow-2);
        stroke-width: 1.5px;
      }

      .cls-3 {
        fill-rule: evenodd;
      }
    </style>
    <filter id="drop-shadow-1" x=".056" y="-.151" width="16" height="23" filterUnits="userSpaceOnUse">
      <feOffset dx="0" dy=".5"/>
      <feGaussianBlur result="blur" stdDeviation=".5"/>
      <feFlood flood-color="#000" flood-opacity=".5"/>
      <feComposite in2="blur" operator="in"/>
      <feComposite in="SourceGraphic"/>
    </filter>
    <filter id="drop-shadow-2" x="10.056" y="13.849" width="19" height="17" filterUnits="userSpaceOnUse">
      <feOffset dx="0" dy=".5"/>
      <feGaussianBlur result="blur-2" stdDeviation=".5"/>
      <feFlood flood-color="#000" flood-opacity=".5"/>
      <feComposite in2="blur-2" operator="in"/>
      <feComposite in="SourceGraphic"/>
    </filter>
  </defs>
  <g id="mous">
    <g>
      <path class="cls-3" d="M3.057,3.335v11.982l2.57-2.55,2.454,5.871,2.117-1.011-2.358-5.582h3.753L3.057,3.335Z"/>
      <path class="cls-1" d="M3.435,2.965l-.907-.926v14.55l.902-.895,2.012-1.997,2.151,5.145.215.513.502-.24,2.117-1.011.456-.218-.197-.466-2.047-4.847h4.215l-.882-.9L3.435,2.965Z"/>
    </g>
  </g>
  <g id="layout">
    <path class="cls-2" d="M25.163,15.99h-10.865c-.682,0-1.235.553-1.235,1.235v8.89c0,.682.553,1.235,1.235,1.235h10.865c.682,0,1.235-.553,1.235-1.235v-8.89c0-.682-.553-1.235-1.235-1.235Z"/>
    <path d="M25.163,15.99h-10.865c-.682,0-1.235.553-1.235,1.235v8.89c0,.682.553,1.235,1.235,1.235h10.865c.682,0,1.235-.553,1.235-1.235v-8.89c0-.682-.553-1.235-1.235-1.235ZM24.916,17.472v1.975h-10.371v-1.975h10.371ZM14.545,20.929h2.963v4.939h-2.963v-4.939ZM18.99,25.868v-4.939h5.926v4.939h-5.926Z"/>
  </g>
</svg>