<?xml version="1.0" encoding="UTF-8"?>
<svg xmlns="http://www.w3.org/2000/svg" width="32" height="32" xmlns:xlink="http://www.w3.org/1999/xlink" viewBox="0 0 32 32">
  <defs>
    <style>
      .cls-1 {
        filter: url(#drop-shadow-1);
        stroke-width: .75px;
      }

      .cls-1, .cls-2, .cls-3 {
        stroke: #fff;
        stroke-miterlimit: 10;
      }

      .cls-2 {
        filter: url(#drop-shadow-2);
        stroke-width: 1.5px;
      }

      .cls-3 {
        fill-rule: evenodd;
      }
    </style>
    <filter id="drop-shadow-1" x=".056" y="-.151" width="16" height="23" filterUnits="userSpaceOnUse">
      <feOffset dx="0" dy=".5"/>
      <feGaussianBlur result="blur" stdDeviation=".5"/>
      <feFlood flood-color="#000" flood-opacity=".5"/>
      <feComposite in2="blur" operator="in"/>
      <feComposite in="SourceGraphic"/>
    </filter>
    <filter id="drop-shadow-2" x="10.056" y="11.849" width="20" height="20" filterUnits="userSpaceOnUse">
      <feOffset dx="0" dy=".5"/>
      <feGaussianBlur result="blur-2" stdDeviation=".5"/>
      <feFlood flood-color="#000" flood-opacity=".5"/>
      <feComposite in2="blur-2" operator="in"/>
      <feComposite in="SourceGraphic"/>
    </filter>
  </defs>
  <g id="mous">
    <g>
      <path class="cls-3" d="M3.057,3.335v11.982l2.57-2.55,2.454,5.871,2.117-1.011-2.358-5.582h3.753L3.057,3.335Z"/>
      <path class="cls-1" d="M3.435,2.965l-.907-.926v14.55l.902-.895,2.012-1.997,2.151,5.145.215.513.502-.24,2.117-1.011.456-.218-.197-.466-2.047-4.847h4.215l-.882-.9L3.435,2.965Z"/>
    </g>
  </g>
  <g id="Layer_8" data-name="Layer 8">
    <path class="cls-2" d="M17.709,17.668c-.295-.294-.296-.772-.002-1.068,0,0,.001-.001.002-.002l2.013-2.013c.294-.295.772-.296,1.068-.002,0,0,.001.001.002.002l2.013,2.013c.295.295.295.774,0,1.07s-.774.295-1.07,0l-.724-.723v2.706c0,.417-.338.755-.755.755s-.755-.338-.755-.755v-2.706l-.724.723c-.295.295-.773.295-1.068,0,0,0,0,0,0,0ZM21.736,25.659l-.724.724v-2.706c0-.417-.338-.755-.755-.755s-.755.338-.755.755v2.706l-.724-.725c-.295-.295-.774-.295-1.07,0s-.295.774,0,1.07l2.013,2.013c.294.295.772.296,1.068.002,0,0,.001-.001.002-.002l2.013-2.013c.295-.295.295-.774,0-1.07s-.774-.295-1.07,0h.001ZM27.336,21.129l-2.013-2.013c-.295-.295-.774-.295-1.07,0s-.295.774,0,1.07l.723.724h-2.706c-.417,0-.755.338-.755.755s.338.755.755.755h2.706l-.725.724c-.295.295-.295.774,0,1.07s.774.295,1.07,0l2.013-2.013c.296-.294.297-.772.002-1.068,0,0-.001-.001-.002-.002h.001ZM15.537,22.419h2.706c.417,0,.755-.338.755-.755s-.338-.755-.755-.755h-2.706l.725-.724c.295-.295.295-.774,0-1.07s-.774-.295-1.07,0l-2.013,2.013c-.295.294-.296.772-.002,1.068,0,0,.001.001.002.002l2.013,2.013c.295.295.774.295,1.07,0s.295-.774,0-1.07h0l-.725-.723Z"/>
    <path d="M17.709,17.668c-.295-.294-.296-.772-.002-1.068,0,0,.001-.001.002-.002l2.013-2.013c.294-.295.772-.296,1.068-.002,0,0,.001.001.002.002l2.013,2.013c.295.295.295.774,0,1.07s-.774.295-1.07,0l-.724-.723v2.706c0,.417-.338.755-.755.755s-.755-.338-.755-.755v-2.706l-.724.723c-.295.295-.773.295-1.068,0,0,0,0,0,0,0ZM21.736,25.659l-.724.724v-2.706c0-.417-.338-.755-.755-.755s-.755.338-.755.755v2.706l-.724-.725c-.295-.295-.774-.295-1.07,0s-.295.774,0,1.07l2.013,2.013c.294.295.772.296,1.068.002,0,0,.001-.001.002-.002l2.013-2.013c.295-.295.295-.774,0-1.07s-.774-.295-1.07,0h.001ZM27.336,21.129l-2.013-2.013c-.295-.295-.774-.295-1.07,0s-.295.774,0,1.07l.723.724h-2.706c-.417,0-.755.338-.755.755s.338.755.755.755h2.706l-.725.724c-.295.295-.295.774,0,1.07s.774.295,1.07,0l2.013-2.013c.296-.294.297-.772.002-1.068,0,0-.001-.001-.002-.002h.001ZM15.537,22.419h2.706c.417,0,.755-.338.755-.755s-.338-.755-.755-.755h-2.706l.725-.724c.295-.295.295-.774,0-1.07s-.774-.295-1.07,0l-2.013,2.013c-.295.294-.296.772-.002,1.068,0,0,.001.001.002.002l2.013,2.013c.295.295.774.295,1.07,0s.295-.774,0-1.07h0l-.725-.723Z"/>
  </g>
</svg>