<?xml version="1.0" encoding="UTF-8"?>
<svg id="a" data-name="Layer 1" xmlns="http://www.w3.org/2000/svg" width="600" height="450" viewBox="0 0 600 450">
  <rect width="600" height="450" style="fill: #6200ee;"/>
  <g>
    <rect x="69.39" y="148.78" width="130.61" height="130.61" rx="10.32" ry="10.32" style="fill: #fff;"/>
    <path d="M173.88,253.26h-78.37v-13.06h78.37v13.06ZM160.82,174.9h0l-26.12,26.12-26.12-26.12h-13.06v52.24h13.06v-33.76l26.12,26.12,26.12-26.12v33.76h13.06v-52.24h-13.06Z" style="fill: #6200ee;"/>
  </g>
  <rect x="432.65" y="226.94" width="77.55" height="53.06" rx="4" ry="4" style="fill: #03dac6;"/>
  <g>
    <path d="M300.33,150.41v48.57h-7.98v-34.62l-14.78,24.42h-.97l-14.78-24.49v34.69h-7.98v-48.57h8.6l14.64,24.29,14.71-24.29h8.53Z" style="fill: #fff;"/>
    <path d="M337.03,164.28h7.49v34.69h-7.49v-5c-2.82,3.93-6.87,5.9-12.14,5.9-4.77,0-8.84-1.77-12.21-5.31-3.38-3.54-5.06-7.85-5.06-12.94s1.69-9.46,5.06-12.98c3.38-3.51,7.45-5.27,12.21-5.27,5.27,0,9.32,1.94,12.14,5.83v-4.93ZM318.23,189.58c2.08,2.11,4.7,3.16,7.84,3.16s5.76-1.05,7.84-3.16c2.08-2.1,3.12-4.75,3.12-7.95s-1.04-5.84-3.12-7.95c-2.08-2.1-4.7-3.16-7.84-3.16s-5.76,1.05-7.84,3.16c-2.08,2.11-3.12,4.75-3.12,7.95s1.04,5.84,3.12,7.95Z" style="fill: #fff;"/>
    <path d="M372.63,171.5h-8.6v16.65c0,1.43.32,2.46.97,3.09s1.61.97,2.88,1.04c1.27.07,2.86.06,4.75-.03v6.73c-5.74.69-9.85.2-12.35-1.49-2.5-1.69-3.75-4.8-3.75-9.33v-16.65h-6.38v-7.22h6.38v-7.49l7.49-2.22v9.71h8.6v7.22Z" style="fill: #fff;"/>
    <path d="M383.94,184.82c.55,2.64,1.83,4.66,3.82,6.07,1.99,1.41,4.42,2.12,7.28,2.12,3.98,0,6.96-1.43,8.95-4.3l6.17,3.61c-3.42,5.04-8.49,7.56-15.19,7.56-5.65,0-10.2-1.72-13.67-5.17s-5.2-7.81-5.2-13.08,1.71-9.52,5.13-13.01c3.42-3.49,7.82-5.24,13.18-5.24,5.09,0,9.26,1.78,12.52,5.34,3.26,3.56,4.89,7.89,4.89,12.98,0,.79-.09,1.83-.28,3.12h-27.62ZM383.87,178.72h20.4c-.51-2.82-1.68-4.95-3.5-6.38-1.83-1.43-3.97-2.15-6.42-2.15-2.77,0-5.09.76-6.94,2.29-1.85,1.53-3.03,3.61-3.54,6.24Z" style="fill: #fff;"/>
    <path d="M425.92,170.11c1.9-4.3,5.46-6.45,10.68-6.45v8.12c-2.87-.18-5.37.5-7.49,2.05-2.13,1.55-3.19,4.11-3.19,7.67v17.49h-7.5v-34.69h7.5v5.83Z" style="fill: #fff;"/>
    <path d="M449.26,157.66c-.95.95-2.07,1.42-3.37,1.42s-2.42-.47-3.36-1.42c-.95-.95-1.42-2.07-1.42-3.37s.46-2.42,1.39-3.37c.93-.95,2.06-1.42,3.4-1.42s2.48.48,3.4,1.42c.92.95,1.39,2.07,1.39,3.37s-.47,2.42-1.42,3.37ZM442.15,198.98v-34.69h7.5v34.69h-7.5Z" style="fill: #fff;"/>
    <path d="M485.8,164.28h7.49v34.69h-7.49v-5c-2.82,3.93-6.87,5.9-12.14,5.9-4.77,0-8.84-1.77-12.21-5.31-3.38-3.54-5.06-7.85-5.06-12.94s1.69-9.46,5.06-12.98c3.38-3.51,7.45-5.27,12.21-5.27,5.27,0,9.32,1.94,12.14,5.83v-4.93ZM466.99,189.58c2.08,2.11,4.7,3.16,7.84,3.16s5.76-1.05,7.84-3.16c2.08-2.1,3.12-4.75,3.12-7.95s-1.04-5.84-3.12-7.95c-2.08-2.1-4.7-3.16-7.84-3.16s-5.76,1.05-7.84,3.16c-2.08,2.11-3.12,4.75-3.12,7.95s1.04,5.84,3.12,7.95Z" style="fill: #fff;"/>
    <path d="M502.03,198.98v-50.65h7.5v50.65h-7.5Z" style="fill: #fff;"/>
    <path d="M282.42,253.38c2.13,1.11,3.79,2.64,5,4.58,1.2,1.94,1.8,4.19,1.8,6.73,0,3.98-1.41,7.29-4.23,9.92-2.82,2.64-6.27,3.95-10.34,3.95h-20.82v-48.57h19.29c3.98,0,7.34,1.28,10.1,3.85,2.75,2.57,4.13,5.77,4.13,9.61,0,4.21-1.64,7.52-4.93,9.92ZM273.13,237.49h-11.31v12.77h11.31c1.76,0,3.24-.61,4.44-1.84s1.8-2.74,1.8-4.55-.6-3.32-1.8-4.54-2.68-1.84-4.44-1.84ZM274.65,271.08c1.85,0,3.41-.66,4.68-1.98,1.27-1.32,1.91-2.93,1.91-4.82s-.64-3.5-1.91-4.82c-1.27-1.32-2.83-1.98-4.68-1.98h-12.84v13.6h12.84Z" style="fill: #fff;"/>
    <path d="M323.5,243.88h7.49v34.69h-7.49v-5c-2.82,3.93-6.87,5.9-12.14,5.9-4.77,0-8.84-1.77-12.21-5.31-3.38-3.54-5.07-7.85-5.07-12.94s1.69-9.46,5.07-12.97c3.38-3.52,7.45-5.27,12.21-5.27,5.27,0,9.32,1.94,12.14,5.83v-4.93ZM304.7,269.17c2.08,2.1,4.7,3.16,7.84,3.16s5.76-1.05,7.84-3.16c2.08-2.1,3.12-4.75,3.12-7.95s-1.04-5.84-3.12-7.94c-2.08-2.1-4.7-3.16-7.84-3.16s-5.76,1.05-7.84,3.16c-2.08,2.1-3.12,4.75-3.12,7.94s1.04,5.84,3.12,7.95Z" style="fill: #fff;"/>
    <path d="M346.26,253.45c0,1.16.63,2.07,1.91,2.74,1.27.67,2.82,1.25,4.65,1.73,1.83.49,3.67,1.05,5.52,1.7,1.85.65,3.41,1.75,4.68,3.3,1.27,1.55,1.91,3.5,1.91,5.86,0,3.33-1.28,5.95-3.85,7.84-2.57,1.9-5.79,2.85-9.68,2.85-3.42,0-6.36-.72-8.81-2.15-2.45-1.43-4.23-3.42-5.34-5.97l6.45-3.75c1.2,3.33,3.77,5,7.7,5s5.9-1.29,5.9-3.89c0-1.11-.64-2.01-1.91-2.7-1.27-.7-2.82-1.29-4.65-1.77-1.83-.49-3.67-1.05-5.52-1.7s-3.41-1.72-4.68-3.23-1.91-3.41-1.91-5.73c0-3.19,1.21-5.76,3.64-7.7,2.43-1.94,5.45-2.91,9.05-2.91,2.87,0,5.42.64,7.67,1.91,2.24,1.27,3.97,3.04,5.17,5.31l-6.31,3.54c-1.2-2.64-3.38-3.95-6.52-3.95-1.43,0-2.64.31-3.61.94-.97.62-1.46,1.54-1.46,2.74Z" style="fill: #fff;"/>
    <path d="M376.51,264.42c.55,2.64,1.83,4.66,3.82,6.07,1.99,1.41,4.42,2.12,7.28,2.12,3.98,0,6.96-1.43,8.95-4.3l6.17,3.61c-3.42,5.04-8.49,7.56-15.19,7.56-5.65,0-10.2-1.72-13.67-5.17s-5.2-7.81-5.2-13.08,1.71-9.52,5.13-13.01c3.42-3.49,7.82-5.24,13.18-5.24,5.09,0,9.26,1.78,12.52,5.34,3.26,3.56,4.89,7.89,4.89,12.98,0,.79-.09,1.83-.28,3.12h-27.62ZM376.44,258.31h20.4c-.51-2.82-1.68-4.95-3.5-6.38-1.83-1.43-3.97-2.15-6.42-2.15-2.77,0-5.09.76-6.94,2.29-1.85,1.52-3.03,3.61-3.54,6.24Z" style="fill: #fff;"/>
  </g>
  <g>
    <path d="M468.11,247.35h4.82l-7.96,20.41h-5.1l-7.96-20.41h4.82l5.71,15.51,5.67-15.51Z" style="fill: #fff;"/>
    <path d="M485.95,250.86c2.07.49,3.75,1.45,5.04,2.88,1.29,1.43,1.94,3.22,1.94,5.37,0,2.86-.97,5.1-2.9,6.74-1.93,1.63-4.3,2.45-7.1,2.45-2.18,0-4.13-.5-5.86-1.51-1.73-1.01-2.97-2.48-3.73-4.41l4-2.33c.84,2.45,2.71,3.67,5.59,3.67,1.63,0,2.92-.41,3.88-1.25.95-.83,1.43-1.95,1.43-3.37s-.48-2.53-1.43-3.35c-.95-.82-2.25-1.22-3.88-1.22h-1.06l-1.88-2.82,6.16-8.12h-11.96v-4.41h17.55v4l-5.8,7.67Z" style="fill: #fff;"/>
  </g>
</svg>
